<?xml version="1.0" encoding="UTF-8" standalone="no"?>
<!DOCTYPE svg PUBLIC "-//W3C//DTD SVG 1.1//EN" "http://www.w3.org/Graphics/SVG/1.1/DTD/svg11.dtd">
<!-- Created with Vectornator (http://vectornator.io/) -->
<svg height="100%" stroke-miterlimit="10" style="fill-rule:nonzero;clip-rule:evenodd;stroke-linecap:round;stroke-linejoin:round;" version="1.1" viewBox="0 0 450 500" width="100%" xml:space="preserve" xmlns="http://www.w3.org/2000/svg" xmlns:vectornator="http://vectornator.io" xmlns:xlink="http://www.w3.org/1999/xlink">
<defs>
<clipPath id="TextBounds">
<rect height="45.6392" width="223.836" x="151.621" y="383.221"/>
</clipPath>
<clipPath id="TextBounds_2">
<rect height="45.6392" width="48.2798" x="319.004" y="384.33"/>
</clipPath>
</defs>
<g id="Layer-2" vectornator:layerName="Layer 2">
<path d="M149.16 179.968L315.401 178.646L316.373 290.085L150.132 291.407L149.16 179.968Z" fill="#fb592a" fill-rule="nonzero" opacity="1" stroke="none"/>
<path d="M149.363 180.066C149.363 138.744 186.526 105.245 232.368 105.245C278.211 105.245 315.373 138.744 315.373 180.066C315.373 221.388 278.211 254.887 232.368 254.887C186.526 254.887 149.363 221.388 149.363 180.066Z" fill="#fb592a" fill-rule="nonzero" opacity="1" stroke="none"/>
<path d="M149.954 289.065L316.407 289.065L316.407 427.632L149.954 427.632L149.954 289.065Z" fill="#000000" fill-rule="nonzero" opacity="1" stroke="none"/>
<path d="M76.1986 319.307L114.465 300.671" fill="none" opacity="1" stroke="#adadad" stroke-linecap="round" stroke-linejoin="round" stroke-width="2.50537"/>
<path d="M70.235 288.868L107.134 279.798" fill="none" opacity="1" stroke="#adadad" stroke-linecap="round" stroke-linejoin="round" stroke-width="2.50537"/>
<path d="M117.322 264.765L68.2472 270.729" fill="none" opacity="1" stroke="#adadad" stroke-linecap="round" stroke-linejoin="round" stroke-width="2.50537"/>
<path d="M81.0439 246.253L129.622 245.881" fill="none" opacity="1" stroke="#adadad" stroke-linecap="round" stroke-linejoin="round" stroke-width="2.50537"/>
<path d="M76.6955 212.833L133.225 220.163" fill="none" opacity="1" stroke="#adadad" stroke-linecap="round" stroke-linejoin="round" stroke-width="2.50537"/>
<path d="M100.317 134.022L137.806 156.994" fill="none" opacity="1" stroke="#adadad" stroke-linecap="round" stroke-linejoin="round" stroke-width="2.50537"/>
<path d="M79.3665 174.269L122.921 191.911" fill="none" opacity="1" stroke="#adadad" stroke-linecap="round" stroke-linejoin="round" stroke-width="2.50537"/>
<path d="M99.3059 166.642L124.575 178.496" fill="none" opacity="1" stroke="#adadad" stroke-linecap="round" stroke-linejoin="round" stroke-width="2.50537"/>
<path d="M165.598 81.3251L178.675 103.003" fill="none" opacity="1" stroke="#adadad" stroke-linecap="round" stroke-linejoin="round" stroke-width="2.50537"/>
<path d="M152.17 87.9951L170.337 111.077" fill="none" opacity="1" stroke="#adadad" stroke-linecap="round" stroke-linejoin="round" stroke-width="2.50537"/>
<path d="M127.246 98.0878L159.542 126.874" fill="none" opacity="1" stroke="#adadad" stroke-linecap="round" stroke-linejoin="round" stroke-width="2.50537"/>
<path d="M113.555 109.848L143.833 133.456" fill="none" opacity="1" stroke="#adadad" stroke-linecap="round" stroke-linejoin="round" stroke-width="2.50537"/>
<path d="M205.06 58.9324L209.234 86.9598" fill="none" opacity="1" stroke="#adadad" stroke-linecap="round" stroke-linejoin="round" stroke-width="2.50537"/>
<path d="M187.767 52.2024L198.926 91.1341" fill="none" opacity="1" stroke="#adadad" stroke-linecap="round" stroke-linejoin="round" stroke-width="2.50537"/>
<path d="M231.725 56.973L233.002 102.209" fill="none" opacity="1" stroke="#adadad" stroke-linecap="round" stroke-linejoin="round" stroke-width="2.50537"/>
<path d="M251.503 56.826L249.288 83.746" fill="none" opacity="1" stroke="#adadad" stroke-linecap="round" stroke-linejoin="round" stroke-width="2.50537"/>
<path d="M281.982 54.0108L268.452 93.7931" fill="none" opacity="1" stroke="#adadad" stroke-linecap="round" stroke-linejoin="round" stroke-width="2.50537"/>
<path d="M299.543 82.5035L282.25 107.95" fill="none" opacity="1" stroke="#adadad" stroke-linecap="round" stroke-linejoin="round" stroke-width="2.50537"/>
<path d="M314.954 87.6107L299.006 108.935" fill="none" opacity="1" stroke="#adadad" stroke-linecap="round" stroke-linejoin="round" stroke-width="2.50537"/>
<path d="M342.91 95.7643L314.058 123.54" fill="none" opacity="1" stroke="#adadad" stroke-linecap="round" stroke-linejoin="round" stroke-width="2.50537"/>
<path d="M350.167 110.727L322.839 133.755" fill="none" opacity="1" stroke="#adadad" stroke-linecap="round" stroke-linejoin="round" stroke-width="2.50537"/>
<path d="M384.616 161.98L338.386 179.77" fill="none" opacity="1" stroke="#adadad" stroke-linecap="round" stroke-linejoin="round" stroke-width="2.50537"/>
<path d="M390.961 179.09L349.717 191.328" fill="none" opacity="1" stroke="#adadad" stroke-linecap="round" stroke-linejoin="round" stroke-width="2.50537"/>
<path d="M373.172 138.752L339.293 157.448" fill="none" opacity="1" stroke="#adadad" stroke-linecap="round" stroke-linejoin="round" stroke-width="2.50537"/>
<path d="M378.611 121.189L326.035 150.083" fill="none" opacity="1" stroke="#adadad" stroke-linecap="round" stroke-linejoin="round" stroke-width="2.50537"/>
<path d="M341.9 231.679L390.482 228.609" fill="none" opacity="1" stroke="#adadad" stroke-linecap="round" stroke-linejoin="round" stroke-width="2.50537"/>
<path d="M337.243 212.521L374.606 205.323" fill="none" opacity="1" stroke="#adadad" stroke-linecap="round" stroke-linejoin="round" stroke-width="2.50537"/>
<path d="M357.969 267.807L399.01 272.679" fill="none" opacity="1" stroke="#adadad" stroke-linecap="round" stroke-linejoin="round" stroke-width="2.50537"/>
<path d="M349.849 310.915L381.147 331.436" fill="none" opacity="1" stroke="#adadad" stroke-linecap="round" stroke-linejoin="round" stroke-width="2.50537"/>
<path d="M363.136 282.865L394.581 289.509" fill="none" opacity="1" stroke="#adadad" stroke-linecap="round" stroke-linejoin="round" stroke-width="2.50537"/>
<path d="M383.804 315.639L350.587 296.3" fill="none" opacity="1" stroke="#adadad" stroke-linecap="round" stroke-linejoin="round" stroke-width="2.50537"/>
<path d="M382.111 319.176C382.111 314.783 385.821 311.222 390.397 311.222C394.973 311.222 398.683 314.783 398.683 319.176C398.683 323.568 394.973 327.129 390.397 327.129C385.821 327.129 382.111 323.568 382.111 319.176Z" fill="#fb592a" fill-rule="nonzero" opacity="1" stroke="#8b8b8b" stroke-linecap="butt" stroke-linejoin="round" stroke-width="1.17334"/>
<path d="M223.797 49.3498C223.797 44.9572 227.507 41.3964 232.083 41.3964C236.659 41.3964 240.369 44.9572 240.369 49.3498C240.369 53.7424 236.659 57.3033 232.083 57.3033C227.507 57.3033 223.797 53.7424 223.797 49.3498Z" fill="#fb592a" fill-rule="nonzero" opacity="1" stroke="#5e5e5e" stroke-linecap="butt" stroke-linejoin="round" stroke-width="1.17334"/>
<path d="M52.3162 270.777C52.3162 266.384 56.0259 262.823 60.602 262.823C65.1781 262.823 68.8878 266.384 68.8878 270.777C68.8878 275.169 65.1781 278.73 60.602 278.73C56.0259 278.73 52.3162 275.169 52.3162 270.777Z" fill="#fb592a" fill-rule="nonzero" opacity="1" stroke="#8b8b8b" stroke-linecap="butt" stroke-linejoin="round" stroke-width="1.17334"/>
<path d="M182.779 212.884C182.779 205.794 188.666 200.047 195.929 200.047C203.192 200.047 209.08 205.794 209.08 212.884C209.08 219.973 203.192 225.72 195.929 225.72C188.666 225.72 182.779 219.973 182.779 212.884Z" fill="#000000" fill-rule="nonzero" opacity="1" stroke="#eadbcf" stroke-linecap="butt" stroke-linejoin="round" stroke-width="2.50537"/>
<path d="M219.759 175.629C219.759 168.54 225.647 162.793 232.91 162.793C240.173 162.793 246.06 168.54 246.06 175.629C246.06 182.718 240.173 188.465 232.91 188.465C225.647 188.465 219.759 182.718 219.759 175.629Z" fill="#000000" fill-rule="nonzero" opacity="1" stroke="#eadbcf" stroke-linecap="butt" stroke-linejoin="round" stroke-width="2.50537"/>
<path d="M257.562 212.336C257.562 205.246 263.449 199.499 270.712 199.499C277.975 199.499 283.863 205.246 283.863 212.336C283.863 219.425 277.975 225.172 270.712 225.172C263.449 225.172 257.562 219.425 257.562 212.336Z" fill="#000000" fill-rule="nonzero" opacity="1" stroke="#eadbcf" stroke-linecap="butt" stroke-linejoin="round" stroke-width="2.50537"/>
<path d="M224.157 220.997C224.157 219.046 225.789 217.464 227.802 217.464C229.815 217.464 231.447 219.046 231.447 220.997C231.447 222.948 229.815 224.53 227.802 224.53C225.789 224.53 224.157 222.948 224.157 220.997Z" fill="#eadbcf" fill-rule="nonzero" opacity="1" stroke="none"/>
<path d="M234.532 228.063C234.532 226.112 236.164 224.53 238.177 224.53C240.19 224.53 241.823 226.112 241.823 228.063C241.823 230.015 240.19 231.596 238.177 231.596C236.164 231.596 234.532 230.015 234.532 228.063Z" fill="#eadbcf" fill-rule="nonzero" opacity="1" stroke="none"/>
<path d="M224.521 345.207C224.521 343.255 226.153 341.674 228.166 341.674C230.179 341.674 231.811 343.255 231.811 345.207C231.811 347.158 230.179 348.74 228.166 348.74C226.153 348.74 224.521 347.158 224.521 345.207Z" fill="#eadbcf" fill-rule="nonzero" opacity="1" stroke="none"/>
<path d="M234.71 365.1C234.71 363.148 236.342 361.567 238.355 361.567C240.368 361.567 242 363.148 242 365.1C242 367.051 240.368 368.633 238.355 368.633C236.342 368.633 234.71 367.051 234.71 365.1Z" fill="#eadbcf" fill-rule="nonzero" opacity="1" stroke="none"/>
<path d="M228.092 223.17L227.607 346.41" fill="none" opacity="1" stroke="#eadbcf" stroke-linecap="round" stroke-linejoin="round" stroke-width="2.50537"/>
<path d="M227.364 346.41L227.607 346.167" fill="none" opacity="1" stroke="#eadbcf" stroke-linecap="round" stroke-linejoin="round" stroke-width="2.50537"/>
<path d="M238.645 230.327L238.281 363.877" fill="none" opacity="1" stroke="#eadbcf" stroke-linecap="round" stroke-linejoin="round" stroke-width="2.50537"/>
<g fill="#ffffff" opacity="1" stroke="none">
<path clip-path="url(#TextBounds)" d="M162.067 414.801C162.282 415.016 162.939 415.123 164.038 415.123C164.202 415.123 164.376 415.12 164.559 415.114C164.742 415.108 164.922 415.098 165.099 415.085L165.099 419.123L162.541 419.217C159.988 419.306 158.244 418.864 157.309 417.891C156.703 417.271 156.4 416.317 156.4 415.029L156.4 402.311L153.519 402.311L153.519 398.463L156.4 398.463L156.4 392.701L161.745 392.701L161.745 398.463L165.099 398.463L165.099 402.311L161.745 402.311L161.745 413.228C161.745 414.075 161.852 414.599 162.067 414.801Z"/>
<path clip-path="url(#TextBounds)" d="M181.153 403.676C180.66 402.715 179.725 402.235 178.348 402.235C176.92 402.235 175.836 402.712 175.097 403.666C174.358 404.62 173.988 405.982 173.988 407.751L173.988 418.933L168.606 418.933L168.606 391.09L173.988 391.09L173.988 400.965C174.772 399.765 175.678 398.928 176.708 398.454C177.738 397.98 178.822 397.743 179.959 397.743C181.235 397.743 182.394 397.964 183.437 398.406C184.479 398.849 185.335 399.525 186.005 400.434C186.574 401.205 186.921 401.998 187.047 402.813C187.174 403.628 187.237 404.958 187.237 406.803L187.237 418.933L181.721 418.933L181.721 406.367C181.721 405.255 181.532 404.358 181.153 403.676Z"/>
<path clip-path="url(#TextBounds)" d="M197.832 398.274L197.832 418.933L192.354 418.933L192.354 398.274L197.832 398.274ZM197.832 390.825L197.832 395.81L192.354 395.81L192.354 390.825L197.832 390.825Z"/>
<path clip-path="url(#TextBounds)" d="M214.663 403.96C214.208 402.962 213.317 402.463 211.99 402.463C210.449 402.463 209.412 402.962 208.882 403.96C208.591 404.528 208.446 405.375 208.446 406.5L208.446 418.933L202.968 418.933L202.968 398.312L208.218 398.312L208.218 401.325C208.888 400.251 209.52 399.487 210.114 399.032C211.162 398.223 212.521 397.819 214.189 397.819C215.768 397.819 217.044 398.166 218.017 398.861C218.801 399.506 219.395 400.333 219.799 401.344C220.507 400.131 221.385 399.24 222.433 398.672C223.545 398.103 224.784 397.819 226.148 397.819C227.058 397.819 227.955 397.996 228.84 398.35C229.724 398.703 230.527 399.323 231.247 400.207C231.828 400.927 232.22 401.812 232.422 402.861C232.548 403.555 232.611 404.573 232.611 405.912L232.574 418.933L227.039 418.933L227.039 405.779C227.039 404.996 226.913 404.352 226.66 403.846C226.18 402.886 225.295 402.406 224.007 402.406C222.516 402.406 221.486 403.025 220.917 404.263C220.627 404.92 220.481 405.71 220.481 406.632L220.481 418.933L215.042 418.933L215.042 406.632C215.042 405.407 214.915 404.516 214.663 403.96Z"/>
<path clip-path="url(#TextBounds)" d="M244.685 418.459C244.066 418.055 243.396 417.347 242.676 416.336L242.676 418.933L237.388 418.933L237.388 391.034L242.77 391.034L242.77 400.965C243.453 400.005 244.205 399.272 245.026 398.767C245.999 398.135 247.237 397.819 248.741 397.819C251.457 397.819 253.583 398.798 255.119 400.757C256.654 402.715 257.422 405.242 257.422 408.338C257.422 411.548 256.663 414.207 255.147 416.317C253.631 418.428 251.514 419.483 248.798 419.483C247.092 419.483 245.721 419.142 244.685 418.459ZM247.206 402.538C245.247 402.538 243.901 403.429 243.169 405.211C242.789 406.158 242.6 407.384 242.6 408.888C242.6 410.657 242.992 412.122 243.775 413.285C244.558 414.447 245.753 415.029 247.357 415.029C248.747 415.029 249.827 414.466 250.598 413.342C251.369 412.217 251.754 410.739 251.754 408.907C251.754 407.441 251.565 406.228 251.186 405.268C250.466 403.448 249.139 402.538 247.206 402.538Z"/>
<path clip-path="url(#TextBounds)" d="M261.402 390.996L266.803 390.996L266.803 418.933L261.402 418.933L261.402 390.996Z"/>
<path clip-path="url(#TextBounds)" d="M280.412 419.615C277.784 419.615 275.465 418.769 273.456 417.076C271.447 415.382 270.443 412.628 270.443 408.812C270.443 405.236 271.349 402.494 273.162 400.586C274.976 398.678 277.329 397.724 280.223 397.724C281.941 397.724 283.489 398.046 284.866 398.691C286.243 399.335 287.381 400.352 288.278 401.742C289.086 402.968 289.611 404.389 289.851 406.007C289.99 406.954 290.047 408.319 290.021 410.101L275.882 410.101C275.958 412.173 276.609 413.626 277.834 414.46C278.58 414.978 279.477 415.237 280.526 415.237C281.638 415.237 282.541 414.921 283.236 414.289C283.615 413.948 283.95 413.474 284.241 412.868L289.756 412.868C289.617 414.094 288.979 415.338 287.842 416.602C286.073 418.611 283.596 419.615 280.412 419.615ZM280.223 402.178C278.972 402.178 278.002 402.57 277.313 403.353C276.625 404.137 276.192 405.198 276.015 406.537L284.411 406.537C284.323 405.11 283.89 404.026 283.113 403.287C282.336 402.548 281.372 402.178 280.223 402.178Z"/>
<path clip-path="url(#TextBounds)" d="M298.19 418.933L291.632 418.933L298.683 408.471L291.936 398.312L298.55 398.312L302 404.301L305.374 398.312L311.799 398.312L305.014 408.376L312.064 418.933L305.336 418.933L301.773 412.735L298.19 418.933Z"/>
</g>
<g fill="#000000" opacity="1" stroke="none">
<path clip-path="url(#TextBounds_2)" d="M322.93 414.394L328.673 414.394L328.673 420.042L322.93 420.042L322.93 414.394Z"/>
<path clip-path="url(#TextBounds_2)" d="M339.363 399.383L339.363 420.042L333.885 420.042L333.885 399.383L339.363 399.383ZM339.363 391.934L339.363 396.919L333.885 396.919L333.885 391.934L339.363 391.934Z"/>
<path clip-path="url(#TextBounds_2)" d="M361.823 401.999C363.567 404.185 364.438 406.769 364.438 409.751C364.438 412.783 363.567 415.377 361.823 417.531C360.079 419.685 357.432 420.763 353.881 420.763C350.331 420.763 347.684 419.685 345.94 417.531C344.196 415.377 343.324 412.783 343.324 409.751C343.324 406.769 344.196 404.185 345.94 401.999C347.684 399.813 350.331 398.72 353.881 398.72C357.432 398.72 360.079 399.813 361.823 401.999ZM357.501 404.955C356.655 403.844 355.442 403.288 353.862 403.288C352.283 403.288 351.067 403.847 350.214 404.965C349.361 406.083 348.935 407.678 348.935 409.751C348.935 411.823 349.361 413.421 350.214 414.546C351.067 415.67 352.283 416.233 353.862 416.233C355.442 416.233 356.655 415.67 357.501 414.546C358.348 413.421 358.771 411.823 358.771 409.751C358.771 407.678 358.348 406.08 357.501 404.955Z"/>
</g>
<path d="M150.557 427.454L150.666 445.95" fill="none" opacity="1" stroke="#000000" stroke-linecap="round" stroke-linejoin="round" stroke-width="1.17334"/>
<path d="M315.873 427.846L315.981 446.342" fill="none" opacity="1" stroke="#000000" stroke-linecap="round" stroke-linejoin="round" stroke-width="1.17334"/>
<path d="M315.887 446.292L150.707 446.053" fill="none" opacity="1" stroke="#000000" stroke-linecap="round" stroke-linejoin="round" stroke-width="1.17334"/>
<path d="M315.94 439.686L150.761 439.447" fill="none" opacity="1" stroke="#000000" stroke-linecap="round" stroke-linejoin="round" stroke-width="1.17334"/>
<path d="M315.824 433.447L150.645 433.208" fill="none" opacity="1" stroke="#000000" stroke-linecap="round" stroke-linejoin="round" stroke-width="1.17334"/>
</g>
</svg>
