<?xml version="1.0" standalone="no"?>
<!DOCTYPE svg PUBLIC "-//W3C//DTD SVG 20010904//EN"
 "http://www.w3.org/TR/2001/REC-SVG-20010904/DTD/svg10.dtd">
<svg version="1.0" xmlns="http://www.w3.org/2000/svg"
 width="2003.000000pt" height="2002.000000pt" viewBox="0 0 2003.000000 2002.000000"
 preserveAspectRatio="xMidYMid meet">

<g transform="translate(0.000000,2002.000000) scale(0.100000,-0.100000)"
fill="#000000" stroke="none">
<path d="M9660 20014 c-578 -27 -1073 -84 -1565 -180 -1635 -320 -3134 -1027
-4435 -2093 -455 -373 -998 -916 -1371 -1371 -1172 -1430 -1913 -3106 -2174
-4915 -75 -520 -99 -872 -99 -1440 -1 -448 7 -625 45 -1005 231 -2346 1287
-4530 2990 -6184 1546 -1502 3546 -2467 5679 -2740 1240 -159 2497 -88 3703
210 1283 317 2502 895 3571 1693 977 729 1812 1629 2468 2661 212 334 364 607
548 983 966 1980 1247 4228 800 6412 -254 1237 -746 2419 -1455 3490 -1539
2326 -3991 3913 -6730 4354 -327 53 -607 84 -985 111 -146 11 -851 21 -990 14z
m1110 -438 c965 -86 1767 -263 2610 -578 905 -338 1726 -796 2516 -1403 535
-412 1102 -964 1550 -1510 782 -955 1394 -2098 1750 -3275 193 -635 322 -1299
378 -1950 53 -603 46 -1308 -19 -1897 -165 -1505 -680 -2942 -1510 -4208
-1032 -1576 -2518 -2823 -4245 -3562 -1475 -632 -3065 -881 -4675 -733 -2056
189 -3980 1033 -5532 2428 -217 194 -599 581 -785 794 -1296 1486 -2091 3276
-2318 5217 -48 408 -55 552 -55 1111 0 560 7 695 56 1120 157 1371 623 2715
1354 3905 427 697 994 1395 1573 1938 246 230 357 327 598 521 1421 1140 3116
1846 4929 2051 115 13 435 39 600 49 163 10 1060 -3 1225 -18z"/>
<path d="M14804 15509 c-39 -11 -102 -72 -120 -115 -21 -51 -18 -124 9 -172
12 -23 92 -106 182 -190 228 -213 293 -292 240 -292 -22 0 -475 -161 -676
-240 -1153 -455 -2159 -1062 -3014 -1818 -163 -145 -547 -529 -686 -687 -617
-702 -1073 -1445 -1400 -2277 -40 -104 -77 -188 -81 -188 -5 0 -61 26 -126 59
-1233 618 -3129 876 -5402 736 -442 -28 -1106 -93 -1176 -116 -40 -13 -102
-72 -120 -115 -25 -60 -15 -389 22 -744 115 -1112 445 -2201 937 -3095 530
-963 1237 -1725 2182 -2350 266 -176 451 -284 740 -430 897 -453 1859 -723
2915 -815 146 -13 744 -33 910 -31 486 6 1225 125 1829 293 1653 460 3009
1370 3976 2668 550 738 948 1573 1185 2485 459 1764 263 3729 -531 5317 -246
492 -528 922 -882 1344 -275 329 -700 753 -775 774 -44 12 -95 12 -138 -1z
m-9054 -5588 c1262 -81 2168 -262 2925 -583 176 -75 435 -206 441 -223 3 -7
-11 -71 -30 -142 -256 -930 -326 -1932 -209 -2997 l6 -60 -70 80 c-95 106
-297 305 -408 400 -127 108 -386 302 -545 407 -149 99 -285 167 -678 341 -144
64 -293 131 -330 150 -83 41 -128 50 -185 35 -156 -39 -214 -241 -101 -353 37
-36 119 -77 424 -211 383 -168 515 -235 655 -329 520 -352 885 -707 1134
-1108 36 -56 101 -172 144 -256 139 -269 185 -382 243 -597 113 -415 242 -802
409 -1233 37 -95 64 -176 61 -180 -10 -9 -388 15 -592 39 -1566 177 -2966 797
-4072 1802 -776 705 -1374 1663 -1741 2791 -201 615 -336 1314 -380 1961 -6
77 -13 148 -16 156 -7 18 -37 14 390 54 283 26 665 51 980 65 258 11 1330 5
1545 -9z"/>
</g>
</svg>
