<?xml version="1.0" standalone="no"?>
<!DOCTYPE svg PUBLIC "-//W3C//DTD SVG 20010904//EN"
 "http://www.w3.org/TR/2001/REC-SVG-20010904/DTD/svg10.dtd">
<svg version="1.0" xmlns="http://www.w3.org/2000/svg"
 width="3888.000000pt" height="3684.000000pt" viewBox="0 0 3888.000000 3684.000000"
 preserveAspectRatio="xMidYMid meet">

<g transform="translate(0.000000,3684.000000) scale(0.100000,-0.100000)"
fill="#000000" stroke="none">
<path d="M18762 32294 c-28 -20 -30 -69 -2 -84 15 -8 27 -4 62 20 37 26 54 30
126 34 46 3 86 7 90 10 3 3 -6 6 -21 6 -14 0 -29 5 -33 11 -4 6 -30 9 -64 7
-32 -1 -62 0 -66 5 -13 13 -69 8 -92 -9z"/>
<path d="M19372 32159 c-35 -12 -79 -18 -130 -17 -66 1 -86 -4 -142 -30 -67
-31 -120 -72 -120 -93 0 -6 -11 -24 -25 -41 -40 -47 -32 -85 27 -134 12 -9 89
-35 201 -67 20 -5 37 -14 37 -19 0 -4 6 -8 14 -8 7 0 34 -19 60 -43 57 -54 61
-85 14 -128 -18 -16 -44 -33 -58 -36 -14 -3 -44 -14 -67 -24 -35 -15 -43 -24
-48 -52 -8 -40 16 -99 48 -122 19 -13 25 -12 56 6 47 28 137 15 170 -25 9 -11
30 -16 62 -16 27 0 49 -4 49 -9 0 -6 19 -14 43 -18 42 -9 42 -9 39 -48 -2 -21
-8 -47 -13 -57 -7 -13 -6 -18 3 -18 25 -1 -38 -28 -91 -39 -40 -8 -70 -8 -115
0 -57 10 -127 38 -98 39 10 0 9 4 -3 16 -8 9 -24 33 -35 54 -18 36 -50 61 -50
39 0 -6 -7 -17 -15 -25 -12 -12 -15 -43 -15 -147 1 -156 9 -206 39 -238 20
-21 31 -24 99 -24 42 0 138 6 212 13 199 20 310 52 310 89 0 10 -26 41 -57 69
-53 49 -56 55 -55 95 1 24 6 57 11 74 5 16 12 56 16 87 3 31 13 62 21 69 8 6
14 17 14 23 0 41 188 128 321 150 20 4 47 15 59 26 13 11 27 20 32 20 14 0 9
57 -7 70 -9 7 -25 14 -38 16 -104 14 -313 66 -349 86 -40 23 -58 69 -58 149 0
50 -39 124 -70 132 -23 6 -63 88 -47 98 11 7 -20 41 -54 59 -37 20 -138 20
-197 -1z"/>
<path d="M20705 32080 c-11 -4 -30 -10 -42 -15 -13 -4 -23 -11 -23 -15 0 -5
-16 -36 -35 -70 -46 -81 -41 -120 26 -228 16 -26 41 -34 99 -33 64 2 118 27
125 60 12 58 21 169 17 214 -3 39 -10 52 -36 72 -34 25 -88 32 -131 15z"/>
<path d="M18770 31939 c-14 -26 -3 -61 18 -57 23 4 29 63 8 71 -10 4 -20 -2
-26 -14z"/>
<path d="M19041 30748 c0 -16 2 -18 6 -8 3 8 11 18 17 22 7 5 4 8 -6 8 -12 0
-18 -7 -17 -22z"/>
<path d="M19058 30206 c-10 -7 -18 -18 -18 -25 0 -6 -4 -11 -9 -11 -5 0 -23
-14 -40 -31 -17 -17 -31 -27 -31 -24 0 4 -8 -2 -17 -14 -19 -22 -117 -61 -153
-61 -34 0 -79 -28 -96 -61 -22 -44 -21 -310 2 -366 21 -50 42 -73 68 -73 32 1
50 20 84 86 32 63 45 74 88 74 13 0 24 5 24 10 0 6 7 10 15 10 8 0 15 -6 15
-12 1 -31 20 20 20 52 0 48 14 68 37 54 10 -6 19 -22 21 -35 2 -19 1 -21 -7
-9 -9 13 -11 13 -15 0 -8 -24 -16 -122 -14 -175 5 -154 -12 -345 -35 -392 -11
-24 -24 -43 -29 -43 -4 0 -8 -9 -8 -21 0 -11 -5 -29 -10 -40 -9 -16 -7 -19 10
-19 13 0 20 -7 20 -19 0 -11 11 -32 25 -47 26 -28 45 -80 37 -101 -2 -7 -15
-13 -27 -13 -18 0 -28 11 -45 44 -11 24 -28 50 -36 56 -7 7 -14 21 -14 31 0
11 -4 19 -10 19 -5 0 -10 9 -10 20 0 11 -6 20 -13 20 -7 0 -24 26 -37 58 -55
134 -99 149 -113 37 -9 -74 -38 -260 -47 -300 -17 -79 -22 -210 -10 -279 18
-112 35 -131 143 -157 26 -6 50 -15 53 -20 7 -12 84 -11 84 1 0 6 6 10 14 10
8 0 16 7 20 15 8 21 39 19 53 -4 18 -28 -15 -53 -73 -55 -33 -1 -50 -7 -60
-21 -7 -11 -19 -26 -26 -34 -6 -8 -12 -38 -13 -66 0 -46 5 -58 43 -107 23 -30
42 -60 42 -66 0 -5 18 -25 41 -43 39 -31 45 -32 172 -41 73 -5 177 -17 232
-27 55 -9 127 -17 160 -15 112 4 230 14 260 23 17 6 59 12 95 16 117 12 320
75 320 100 0 7 15 18 33 24 24 9 29 14 18 21 -12 7 -12 11 -2 24 7 9 17 13 22
10 5 -3 9 8 9 23 0 45 78 83 172 83 50 0 128 13 191 32 33 10 37 15 37 45 0
31 -14 49 -130 165 -71 72 -130 135 -130 140 0 6 -18 37 -39 69 -40 60 -62
120 -80 219 -13 73 -27 131 -36 152 -9 23 -67 58 -95 58 -42 0 -100 -23 -105
-42 -4 -10 -11 -18 -16 -18 -5 0 -9 -9 -9 -20 0 -11 -4 -20 -10 -20 -5 0 -10
-7 -10 -16 0 -28 -41 -101 -74 -133 l-31 -30 -70 34 c-38 18 -86 50 -105 70
-19 20 -44 38 -55 41 -26 7 -75 78 -75 109 0 34 -38 93 -71 110 -59 31 -80 60
-90 127 -18 127 9 215 75 239 20 7 36 17 36 21 0 4 6 8 14 8 16 0 66 38 66 51
0 5 -9 9 -20 9 -11 0 -20 4 -20 9 0 5 -14 14 -31 21 -39 17 -53 40 -73 120
-19 75 -60 150 -82 150 -9 0 -30 16 -47 35 -17 19 -37 35 -45 35 -8 0 -29 12
-48 28 -75 62 -95 72 -155 87 -77 18 -79 18 -101 1z m2 -1476 c17 -33 9 -75
-15 -75 -15 0 -21 8 -23 33 -6 59 16 83 38 42z"/>
<path d="M14774 30008 c-10 -24 -23 -46 -28 -49 -5 -4 -5 -29 0 -60 13 -82 7
-364 -7 -391 -7 -13 -18 -61 -25 -108 -17 -121 -40 -248 -54 -300 -9 -31 -10
-82 -5 -166 l6 -120 -39 -27 c-50 -33 -66 -82 -34 -107 11 -9 78 -36 149 -58
126 -41 131 -42 283 -44 155 -2 212 7 250 39 9 7 32 19 53 28 20 8 37 20 37
26 0 7 52 10 165 7 139 -2 167 -1 175 12 31 48 -20 64 -222 69 -23 1 -38 6
-38 14 0 6 -18 22 -40 35 -22 13 -38 26 -36 31 3 4 -19 34 -49 67 -64 69 -135
203 -135 254 0 10 -7 23 -15 30 -8 6 -21 36 -30 66 -21 72 -51 107 -77 93 -28
-15 -90 -1 -107 24 -26 37 -8 127 26 127 5 0 15 -9 23 -21 30 -42 46 -56 72
-62 25 -7 28 -4 34 28 10 57 -1 80 -50 100 -50 21 -48 15 -66 179 -14 130 -76
276 -118 276 -6 0 -17 8 -24 19 -7 10 -22 21 -34 25 -17 5 -24 -1 -40 -36z
m33 -350 c-2 -13 -4 -3 -4 22 0 25 2 35 4 23 2 -13 2 -33 0 -45z"/>
<path d="M21165 29733 c-82 -17 -95 -27 -128 -96 -14 -29 -38 -65 -53 -81 -31
-33 -48 -103 -34 -142 6 -14 10 -36 10 -48 0 -13 7 -37 16 -55 37 -75 25 -192
-25 -234 -37 -31 -39 -35 -57 -129 -17 -90 -15 -121 17 -222 18 -59 24 -69 54
-82 111 -46 318 17 497 151 66 49 78 66 78 115 0 23 28 108 49 148 5 9 15 32
22 50 6 18 20 37 30 43 11 5 19 17 19 25 0 30 24 42 69 34 36 -6 44 -5 56 14
20 28 19 65 -5 104 -17 27 -25 32 -60 32 l-40 0 0 63 c0 43 -5 70 -17 87 -10
14 -26 42 -38 64 -14 28 -37 48 -80 72 -190 106 -238 117 -380 87z"/>
<path d="M22276 29362 c-12 -11 -6 -40 10 -46 9 -3 37 -6 64 -6 43 0 60 10 60
35 0 8 -127 25 -134 17z"/>
<path d="M22460 29310 c0 -5 5 -10 10 -10 6 0 10 5 10 10 0 6 -4 10 -10 10 -5
0 -10 -4 -10 -10z"/>
<path d="M22800 29259 c-30 -4 -83 -7 -118 -8 -35 -1 -72 -6 -83 -12 -11 -6
-28 -12 -37 -14 -42 -9 -90 -36 -108 -61 -25 -37 -82 -94 -93 -94 -4 0 -20 11
-35 25 -30 28 -34 29 -55 16 -10 -7 -14 -25 -12 -60 1 -28 -2 -51 -7 -51 -5 0
-13 -35 -17 -77 -8 -91 -26 -130 -60 -139 -34 -9 -113 -98 -120 -137 -5 -24
-18 -40 -53 -62 -33 -21 -54 -45 -71 -79 -21 -42 -33 -53 -81 -74 -44 -20 -60
-33 -69 -56 -17 -47 -40 -69 -103 -99 -57 -28 -67 -43 -59 -89 0 -5 -4 -8 -11
-8 -48 0 89 -50 149 -54 157 -13 412 -69 579 -129 50 -18 126 -32 260 -47 221
-25 292 -41 394 -87 92 -42 223 -76 400 -102 105 -15 156 -29 230 -60 63 -26
136 -47 215 -61 223 -40 315 -62 373 -89 31 -15 77 -33 102 -39 49 -13 195
-46 249 -57 18 -4 50 -22 70 -41 21 -18 60 -44 87 -58 52 -26 232 -88 294
-101 75 -15 220 -70 231 -86 5 -9 85 -34 146 -45 37 -7 89 10 97 33 3 8 1 23
-4 33 -6 10 -10 27 -10 37 -1 17 -32 63 -43 63 -9 0 -111 71 -135 93 -36 33
-53 85 -50 147 2 50 -3 66 -52 163 -30 59 -58 107 -62 107 -4 0 -8 7 -8 16 0
8 -6 22 -12 29 -7 8 -18 20 -23 27 -21 28 -38 108 -45 218 -4 63 -17 185 -29
270 -25 171 -29 285 -17 402 l9 77 -64 40 c-35 23 -71 41 -80 41 -9 0 -24 9
-33 19 -17 19 -17 20 6 33 28 15 97 35 196 54 82 15 92 19 92 39 0 17 -109 40
-255 55 -60 6 -146 17 -190 25 -44 8 -101 17 -125 20 -92 9 -196 24 -210 29
-8 3 -71 12 -140 21 -69 8 -177 21 -240 30 -89 12 -226 16 -610 18 -272 1
-520 -1 -550 -4z"/>
<path d="M16012 29230 c-23 -10 -45 -26 -48 -35 -4 -10 -13 -13 -25 -10 -22 7
-24 -6 -8 -34 10 -14 8 -24 -11 -49 -17 -23 -24 -49 -28 -104 -2 -40 -11 -86
-19 -101 -7 -15 -11 -32 -8 -37 9 -15 61 9 84 41 27 36 39 141 22 190 -13 36
2 63 37 66 30 2 87 38 90 58 4 17 -13 35 -33 35 -5 0 -29 -9 -53 -20z"/>
<path d="M15820 28846 c0 -2 7 -7 16 -10 8 -3 12 -2 9 4 -6 10 -25 14 -25 6z"/>
<path d="M12090 19361 c0 -160 0 -161 -54 -161 -38 0 -138 -30 -201 -59 -82
-38 -145 -97 -186 -173 -32 -60 -34 -68 -34 -163 0 -84 4 -107 23 -147 35 -70
95 -126 176 -163 65 -30 222 -75 260 -75 14 0 16 -28 16 -241 l0 -241 -57 7
c-131 16 -300 76 -383 135 -48 34 -51 30 -48 -92 l3 -113 65 -23 c93 -34 220
-60 328 -68 l92 -7 0 -193 0 -194 65 0 65 0 2 196 3 197 86 17 c121 25 211 70
285 144 76 76 105 146 106 253 0 103 -24 166 -86 228 -65 65 -138 99 -282 132
l-114 27 0 234 0 234 56 -7 c96 -12 163 -33 263 -85 54 -28 100 -50 104 -50
14 0 8 207 -6 218 -22 19 -207 62 -314 74 l-103 12 0 148 0 148 -65 0 -65 0 0
-149z m0 -536 c0 -124 -2 -225 -4 -225 -18 0 -149 46 -179 63 -106 59 -121
238 -26 310 60 44 125 70 197 76 9 1 12 -50 12 -224z m267 -467 c92 -34 143
-101 143 -188 0 -91 -68 -177 -160 -204 -30 -8 -68 -16 -85 -18 l-30 -3 -3
224 -2 224 40 -7 c22 -3 66 -16 97 -28z"/>
<path d="M26678 19358 l-3 -153 -52 -6 c-135 -17 -278 -87 -343 -169 -98 -124
-106 -304 -18 -425 57 -79 183 -141 356 -175 l62 -13 0 -238 0 -239 -32 0
c-90 1 -259 53 -368 113 -41 23 -78 44 -82 45 -5 2 -8 -46 -8 -107 l0 -111 38
-16 c74 -31 216 -63 333 -75 l119 -13 0 -193 0 -193 65 0 65 0 0 198 0 197 87
17 c166 32 305 127 361 245 23 50 27 71 27 153 0 84 -3 102 -28 152 -50 101
-146 160 -332 203 l-115 27 0 235 0 236 63 -7 c82 -10 195 -48 285 -97 l72
-40 0 110 0 110 -64 20 c-76 23 -194 46 -288 56 l-68 7 0 149 0 149 -65 0 -64
0 -3 -152z m2 -533 c0 -154 -3 -225 -11 -225 -28 0 -168 54 -197 76 -84 64
-96 197 -25 275 42 47 72 64 145 83 96 26 88 46 88 -209z m298 -479 c61 -31
88 -61 102 -116 24 -91 -14 -196 -87 -237 -37 -21 -141 -53 -170 -53 -10 0
-13 49 -13 229 l0 229 60 -14 c33 -8 82 -25 108 -38z"/>
<path d="M22883 19439 c-69 -9 -230 -50 -287 -74 l-36 -15 0 -116 0 -115 63
35 c186 102 420 135 554 76 63 -27 127 -94 142 -146 17 -61 13 -165 -9 -235
-48 -156 -250 -378 -653 -719 l-136 -115 -1 -117 0 -118 550 0 550 0 0 95 0
95 -436 2 -436 3 199 172 c491 425 613 603 601 878 -4 84 -10 110 -35 165 -89
194 -328 289 -630 249z"/>
<path d="M25170 19434 c-226 -49 -349 -207 -406 -520 -22 -124 -25 -477 -5
-599 33 -201 82 -323 168 -415 116 -125 310 -177 508 -135 158 33 264 118 335
267 133 277 131 860 -3 1143 -45 94 -122 176 -200 215 -116 57 -264 73 -397
44z m286 -195 c138 -71 194 -259 194 -643 -1 -488 -93 -666 -345 -666 -175 0
-272 91 -320 300 -36 160 -30 626 11 785 32 124 102 211 194 240 72 23 206 15
266 -16z"/>
<path d="M13080 18600 l0 -820 110 0 110 0 0 405 0 405 405 0 405 0 0 -405 0
-405 110 0 110 0 0 820 0 820 -110 0 -110 0 0 -320 0 -320 -405 0 -405 0 0
320 0 320 -110 0 -110 0 0 -820z"/>
<path d="M17510 19315 l0 -105 115 0 115 0 0 105 0 105 -115 0 -115 0 0 -105z"/>
<path d="M15094 19025 c-183 -40 -326 -175 -391 -369 -26 -76 -27 -92 -27
-261 0 -169 1 -185 27 -261 86 -258 292 -396 567 -381 207 12 366 112 452 288
56 113 72 191 72 354 0 163 -16 241 -71 354 -43 86 -133 182 -210 224 -114 61
-282 82 -419 52z m247 -181 c140 -41 217 -153 239 -347 31 -263 -47 -466 -205
-539 -71 -33 -219 -33 -285 -1 -152 75 -219 228 -207 478 9 192 53 297 154
369 77 54 201 70 304 40z"/>
<path d="M16608 19024 c-66 -16 -163 -62 -230 -110 l-48 -34 0 65 0 65 -105 0
-105 0 0 -840 0 -840 105 0 105 0 0 251 c0 197 3 250 13 246 104 -44 145 -58
198 -67 195 -31 345 14 475 144 133 133 191 309 181 551 -7 149 -23 227 -70
328 -95 203 -295 296 -519 241z m207 -212 c111 -58 160 -160 172 -357 14 -243
-56 -409 -205 -482 -52 -26 -67 -28 -167 -28 -94 0 -123 4 -197 29 l-88 28 0
352 0 352 78 46 c42 26 102 54 132 63 30 9 60 19 65 21 6 2 46 2 90 1 57 -3
91 -9 120 -25z"/>
<path d="M20090 19034 c-71 -14 -156 -51 -231 -99 -45 -30 -84 -55 -86 -55 -2
0 -3 29 -3 65 l0 66 -102 -3 -103 -3 -2 -612 -3 -613 105 0 105 0 0 459 0 459
67 43 c108 68 169 91 253 97 92 5 149 -9 195 -49 65 -57 68 -80 73 -571 l4
-438 99 0 99 0 0 457 -1 456 73 49 c93 62 166 89 253 95 93 7 150 -10 196 -56
61 -61 62 -70 66 -558 l4 -443 100 0 99 0 0 444 c0 244 -4 465 -9 492 -34 176
-127 280 -279 313 -154 32 -325 -14 -478 -130 -36 -27 -68 -49 -72 -49 -4 0
-16 16 -27 36 -24 45 -105 108 -166 129 -45 16 -184 28 -229 19z"/>
<path d="M17520 18395 l0 -615 105 0 105 0 0 615 0 615 -105 0 -105 0 0 -615z"/>
<path d="M18130 18573 c0 -486 4 -527 61 -634 55 -102 144 -162 272 -182 137
-21 275 17 420 116 l67 47 0 -70 0 -70 100 0 100 0 0 615 0 615 -100 0 -100 0
0 -457 0 -458 -48 -32 c-125 -83 -232 -118 -342 -110 -88 6 -128 23 -164 70
-51 66 -51 64 -56 537 l-5 445 -102 3 -103 3 0 -438z"/>
<path d="M24050 17935 l0 -155 130 0 130 0 0 155 0 155 -130 0 -130 0 0 -155z"/>
<path d="M12676 8924 c-9 -23 20 -139 50 -198 14 -28 42 -69 63 -91 20 -22 56
-65 79 -96 22 -31 62 -74 88 -95 26 -22 75 -67 108 -101 87 -87 131 -93 224
-32 66 43 106 108 106 172 0 49 -1 52 -70 114 -46 43 -99 79 -159 108 -49 25
-110 63 -135 86 -41 37 -130 89 -155 89 -5 0 -30 14 -55 30 -52 35 -133 43
-144 14z"/>
<path d="M25155 7976 c-55 -18 -127 -46 -160 -63 -33 -17 -94 -40 -135 -52
-89 -26 -115 -36 -197 -72 -72 -33 -125 -48 -290 -83 -67 -15 -146 -37 -175
-51 -29 -13 -116 -38 -193 -54 -77 -17 -162 -37 -190 -45 -27 -8 -72 -17 -100
-21 -27 -4 -90 -20 -140 -36 -121 -40 -185 -55 -280 -69 -139 -19 -208 -32
-290 -56 -109 -31 -178 -41 -405 -59 -107 -8 -276 -24 -375 -35 -319 -37 -328
-40 -341 -106 -12 -63 15 -157 85 -296 64 -129 68 -134 116 -158 48 -24 57
-25 245 -25 197 0 217 2 670 66 80 11 203 36 275 55 178 47 325 80 420 94 54
8 112 26 180 56 55 25 154 60 220 79 66 19 170 54 231 79 75 31 137 49 189 56
52 7 102 21 149 43 83 40 160 67 270 97 49 13 97 34 125 54 25 18 79 50 119
71 40 21 111 73 162 118 106 94 115 116 107 247 -7 103 -27 154 -70 180 -46
28 -106 25 -222 -14z"/>
<path d="M15051 7781 c-17 -17 -18 -36 -17 -227 1 -179 4 -216 20 -259 26 -68
88 -130 166 -166 35 -17 83 -44 106 -59 41 -29 134 -56 269 -79 75 -13 106
-23 172 -52 65 -29 198 -65 304 -84 52 -8 121 -20 154 -26 33 -6 83 -18 110
-28 28 -10 70 -22 95 -26 25 -4 70 -13 100 -20 70 -17 114 -22 280 -35 74 -5
162 -16 195 -25 118 -32 322 -63 445 -69 117 -5 264 -22 405 -46 33 -5 94 -10
135 -10 41 0 147 -7 235 -15 248 -22 366 -20 461 10 143 44 199 66 221 87 12
12 34 57 48 102 15 45 33 91 41 104 8 12 32 68 54 123 36 93 38 103 25 128
-26 51 -139 68 -505 77 -140 3 -302 12 -359 20 -57 8 -147 17 -200 21 -56 3
-113 13 -136 23 -91 39 -319 67 -635 79 -193 8 -226 14 -279 49 -39 27 -95 41
-196 51 -79 8 -184 22 -455 62 -44 7 -92 21 -116 35 -45 26 -100 42 -234 68
-90 18 -188 45 -205 56 -17 12 -108 38 -155 44 -41 6 -160 33 -373 87 -99 24
-151 25 -176 0z"/>
</g>
</svg>
