<?xml version="1.0" standalone="no"?>
<!DOCTYPE svg PUBLIC "-//W3C//DTD SVG 20010904//EN"
 "http://www.w3.org/TR/2001/REC-SVG-20010904/DTD/svg10.dtd">
<svg version="1.0" xmlns="http://www.w3.org/2000/svg"
 width="400.000000pt" height="400.000000pt" viewBox="0 0 400.000000 400.000000"
 preserveAspectRatio="xMidYMid meet">

<g transform="translate(0.000000,400.000000) scale(0.100000,-0.100000)"
fill="#000000" stroke="none">
<path d="M0 2000 l0 -2000 2000 0 2000 0 0 2000 0 2000 -2000 0 -2000 0 0
-2000z m2115 1470 c356 -41 654 -303 756 -665 32 -116 32 -325 0 -443 -71
-262 -241 -471 -476 -586 -206 -101 -459 -117 -685 -44 -218 71 -422 253 -520
463 -13 28 -27 58 -31 67 -5 10 -20 65 -34 124 -47 199 -24 397 68 587 67 137
146 230 292 345 87 68 263 137 386 151 105 12 142 12 244 1z m-967 -2172 c-3
-31 -6 -33 -45 -36 -43 -3 -43 -3 -43 -43 0 -39 0 -39 40 -39 38 0 40 -2 40
-30 0 -28 -2 -30 -40 -30 l-40 0 0 -45 0 -45 45 0 c43 0 45 -1 45 -30 l0 -30
-85 0 -85 0 0 173 c0 96 3 177 7 180 3 4 42 7 85 7 l79 0 -3 -32z m231 8 c25
-23 29 -101 7 -131 -11 -15 -11 -22 0 -44 8 -14 14 -56 14 -93 l0 -68 -40 0
-40 0 0 70 c0 68 -1 70 -25 70 -24 0 -25 -2 -25 -70 l0 -70 -40 0 -40 0 0 181
0 181 84 -3 c65 -3 89 -8 105 -23z m254 10 c11 -8 17 -27 17 -50 0 -34 -2 -36
-34 -36 -28 0 -35 4 -38 23 -2 14 -11 23 -25 25 -23 3 -23 3 -23 -127 l0 -131
25 0 c23 0 25 4 25 45 0 33 -4 45 -15 45 -10 0 -15 10 -15 30 0 29 1 30 50 30
l50 0 0 -90 c0 -89 0 -90 -30 -105 -48 -25 -141 -15 -162 18 -4 7 -8 76 -8
155 0 174 4 182 103 182 36 -1 69 -6 80 -14z m249 -3 c10 -9 18 -30 18 -50 0
-31 -2 -33 -34 -33 -28 0 -35 4 -38 23 -2 14 -11 23 -25 25 -30 4 -35 -18 -31
-148 l3 -105 28 -3 c24 -3 27 0 27 27 0 29 3 31 35 31 35 0 35 0 35 -45 0 -39
-4 -46 -30 -60 -37 -19 -90 -19 -135 -1 l-35 15 0 152 c0 186 1 189 98 189 47
0 71 -5 84 -17z m254 -5 c24 -24 30 -100 10 -131 -11 -16 -13 -27 -7 -32 7 -3
11 -42 11 -91 l0 -84 -35 0 -35 0 0 70 c0 68 -1 70 -25 70 -24 0 -25 -2 -25
-70 l0 -70 -40 0 -40 0 0 181 0 182 85 -5 c60 -3 90 -9 101 -20z m234 -13 c0
-34 -1 -35 -40 -35 l-40 0 0 -40 0 -40 40 0 c38 0 40 -2 40 -30 0 -28 -2 -30
-40 -30 l-40 0 0 -45 0 -45 40 0 c38 0 40 -2 40 -30 l0 -30 -80 0 -80 0 0 180
0 180 80 0 80 0 0 -35z m232 18 c16 -14 18 -34 18 -180 l0 -163 -35 0 -35 0 0
60 0 60 -30 0 -30 0 0 -60 0 -60 -41 0 -41 0 4 165 c3 150 5 165 23 179 29 22
142 21 167 -1z m230 6 c14 -8 23 -8 31 0 17 17 108 14 129 -6 16 -14 18 -34
18 -180 l0 -163 -35 0 -34 0 -3 153 c-3 144 -4 152 -23 152 -19 0 -20 -8 -23
-152 l-3 -153 -39 0 -40 0 0 149 c0 83 -4 152 -9 155 -5 4 -16 3 -25 0 -14 -5
-16 -28 -16 -155 l0 -149 -41 0 -41 0 4 166 c3 150 5 167 22 180 23 17 99 19
128 3z"/>
<path d="M1908 3235 c-144 -39 -258 -182 -258 -323 0 -35 5 -83 11 -108 l11
-44 329 0 328 0 8 38 c4 20 8 73 7 117 -1 66 -6 89 -28 133 -78 154 -247 232
-408 187z"/>
<path d="M1691 2716 c5 -19 16 -48 24 -63 8 -15 15 -33 15 -40 0 -7 7 -27 15
-45 8 -18 26 -64 40 -103 53 -144 64 -173 104 -280 73 -191 79 -209 91 -247 6
-21 15 -38 19 -38 4 0 14 21 23 48 31 90 49 137 58 157 6 11 15 34 20 50 5 17
21 62 35 100 15 39 33 88 41 110 8 22 19 49 23 60 5 11 14 34 20 50 5 17 22
62 36 100 15 39 35 94 45 123 l19 52 -32 0 c-53 0 -100 -18 -137 -51 -51 -47
-103 -50 -154 -10 -53 43 -76 46 -125 22 -44 -23 -62 -20 -102 20 -11 11 -33
19 -53 19 -34 0 -34 0 -25 -34z"/>
<path d="M1270 1220 c0 -47 2 -50 25 -50 23 0 25 3 25 50 0 47 -2 50 -25 50
-23 0 -25 -3 -25 -50z"/>
<path d="M2030 1220 c0 -47 2 -50 25 -50 23 0 25 3 25 50 0 47 -2 50 -25 50
-23 0 -25 -3 -25 -50z"/>
<path d="M2497 1273 c-4 -3 -7 -33 -7 -65 0 -58 0 -58 30 -58 29 0 30 1 30 49
0 27 -3 56 -6 65 -6 16 -35 22 -47 9z"/>
</g>
</svg>
