<?xml version="1.0" standalone="no"?>
<!DOCTYPE svg PUBLIC "-//W3C//DTD SVG 20010904//EN"
 "http://www.w3.org/TR/2001/REC-SVG-20010904/DTD/svg10.dtd">
<svg version="1.0" xmlns="http://www.w3.org/2000/svg"
 width="936.000000pt" height="804.000000pt" viewBox="0 0 936.000000 804.000000"
 preserveAspectRatio="xMidYMid meet">

<g transform="translate(0.000000,804.000000) scale(0.100000,-0.100000)"
fill="#000000" stroke="none">
<path d="M4519 4774 c-66 -16 -159 -70 -200 -116 -53 -58 -55 -62 -82 -113
-49 -92 -60 -203 -31 -306 l16 -56 411 -5 c227 -3 416 -2 420 2 15 13 39 155
33 195 -21 145 -45 202 -120 276 -119 119 -280 164 -447 123z m244 -139 c10
-4 34 -40 53 -79 l34 -72 -29 -70 c-17 -38 -36 -72 -43 -76 -21 -12 -101 -45
-126 -53 -22 -7 -70 5 -129 31 -17 8 -35 14 -40 14 -5 0 -24 32 -42 70 -24 52
-31 78 -26 98 12 50 54 129 72 136 10 3 45 16 78 28 l60 23 60 -21 c33 -12 68
-25 78 -29z"/>
<path d="M4580 4641 c-19 -10 -49 -21 -66 -25 -26 -6 -33 -14 -43 -48 -7 -23
-19 -51 -27 -63 -13 -19 -11 -28 16 -82 35 -71 40 -75 100 -93 25 -7 50 -17
56 -21 5 -5 37 3 70 16 32 14 65 25 72 25 6 0 12 5 12 11 0 5 12 35 26 65 l25
54 -25 54 c-14 30 -26 59 -26 64 0 6 -12 13 -27 17 -15 3 -46 15 -70 26 -51
23 -50 23 -93 0z m110 -86 c0 -11 -11 -15 -40 -15 -22 0 -40 -4 -40 -10 0 -5
4 -10 10 -10 5 0 14 -9 21 -21 9 -18 7 -26 -17 -50 l-28 -29 47 0 c35 0 47 -4
47 -15 0 -12 -13 -15 -60 -15 -73 0 -86 17 -46 57 32 32 32 38 1 69 -42 42
-34 54 40 54 51 0 65 -3 65 -15z"/>
<path d="M4245 4131 c4 -20 18 -59 31 -87 13 -28 24 -56 24 -63 0 -6 11 -34
25 -61 14 -27 25 -59 25 -70 0 -12 8 -35 17 -53 15 -30 42 -98 83 -212 10 -28
27 -72 39 -97 11 -26 21 -52 21 -58 0 -6 11 -32 24 -58 13 -26 27 -62 31 -80
4 -18 13 -45 21 -60 7 -15 21 -51 30 -79 9 -29 20 -53 25 -53 4 0 11 15 14 33
4 17 18 54 31 81 13 28 24 56 24 65 0 8 9 33 19 55 20 42 37 84 66 171 10 28
28 74 41 103 13 29 24 57 24 62 0 5 11 33 24 62 13 29 29 69 34 88 11 39 45
123 75 189 11 24 23 58 28 75 4 17 11 42 15 55 l7 24 -67 -6 c-69 -7 -97 -21
-155 -80 -30 -30 -89 -45 -133 -34 -13 4 -41 22 -63 42 -53 47 -95 54 -147 25
-51 -28 -104 -22 -134 16 -14 17 -36 29 -64 34 l-42 8 7 -37z"/>
</g>
</svg>
