<?xml version="1.0" encoding="UTF-8"?>
<!DOCTYPE svg PUBLIC "-//W3C//DTD SVG 1.1//EN" "http://www.w3.org/Graphics/SVG/1.1/DTD/svg11.dtd">
<!-- Creator: CorelDRAW X8 -->
<svg xmlns="http://www.w3.org/2000/svg" xml:space="preserve" width="24.529mm" height="28.4706mm" version="1.1" style="shape-rendering:geometricPrecision; text-rendering:geometricPrecision; image-rendering:optimizeQuality; fill-rule:evenodd; clip-rule:evenodd"
viewBox="0 0 376 437"
 xmlns:xlink="http://www.w3.org/1999/xlink">
 <defs>
  <style type="text/css">
   <![CDATA[
    .fil4 {fill:#FEFEFE}
    .fil7 {fill:#00288A;fill-rule:nonzero}
    .fil5 {fill:#00EBF4;fill-rule:nonzero}
    .fil6 {fill:#0148C8;fill-rule:nonzero}
    .fil3 {fill:#FEFEFE;fill-opacity:0.290196}
    .fil2 {fill:#FEFEFE;fill-opacity:0.549020}
    .fil1 {fill:url(#id1)}
    .fil0 {fill:url(#id2)}
   ]]>
  </style>
     <clipPath id="id0">
      <rect x="101" y="89" width="174" height="155"/>
     </clipPath>
  <linearGradient id="id1" gradientUnits="userSpaceOnUse" x1="58.6325" y1="17.153" x2="317.848" y2="310.681">
   <stop offset="0" style="stop-opacity:1; stop-color:#0449C9"/>
   <stop offset="1" style="stop-opacity:1; stop-color:#00125C"/>
  </linearGradient>
  <linearGradient id="id2" gradientUnits="userSpaceOnUse" x1="321.661" y1="26.0456" x2="70.0653" y2="313.219">
   <stop offset="0" style="stop-opacity:1; stop-color:#48ECF2"/>
   <stop offset="1" style="stop-opacity:1; stop-color:#0065B6"/>
  </linearGradient>
 </defs>
 <g id="Layer_x0020_1">
  <metadata id="CorelCorpID_0Corel-Layer"/>
  <g id="_3165256006640">
   <path class="fil0" d="M188 0c92,0 166,74 166,166 0,91 -74,166 -166,166 -91,0 -166,-75 -166,-166 0,-92 75,-166 166,-166z"/>
   <path class="fil1" d="M188 17c82,0 149,67 149,149 0,82 -67,148 -149,148 -82,0 -148,-66 -148,-148 0,-82 66,-149 148,-149z"/>
   <path class="fil2" d="M142 35c12,-4 24,2 27,12 3,11 -5,22 -17,25 -13,4 -25,-2 -28,-12 -3,-10 5,-22 18,-25z"/>
   <path class="fil3" d="M93 70c10,-2 20,2 23,10 2,8 -4,17 -14,20 -10,3 -20,-2 -22,-10 -3,-8 3,-17 13,-20z"/>
   <g>
    <g style="clip-path:url(#id0)">
     <image x="101" y="89" width="174" height="155" xlink:href="ermoon logo svg_Images\ermoon logo svg_ImgID1.png"/>
    </g>
    <path class="fil4" d="M153 121l0 33 12 0c3,0 9,-1 11,-2 3,-2 4,-4 5,-7 1,0 1,-1 2,-1l5 0c6,0 11,5 11,11l0 23c0,6 -5,11 -11,11l-5 0c-1,0 -1,-1 -2,-2 -1,-2 -2,-4 -5,-6 -2,-2 -8,-2 -11,-2l-12 0 0 31c15,0 30,0 44,0 5,0 9,-3 9,-8 0,-1 1,-2 2,-2l14 0c1,0 2,1 2,2l0 17c0,10 -8,18 -18,18l-46 0c-6,0 -11,-5 -11,-11l0 -12 -29 0c-7,0 -13,-6 -13,-12l0 -72c0,-7 6,-12 13,-12l29 0 0 -13c0,-6 5,-11 11,-11l46 0c10,0 18,8 18,18l0 18c0,1 -1,1 -2,1l-14 0c-1,0 -2,0 -2,-1 0,-5 -4,-9 -9,-9 -14,0 -29,0 -44,0zm98 60l0 -18c0,0 1,-1 1,-1 1,-1 1,-1 2,0 3,1 7,1 11,0 0,0 1,0 1,0 1,1 1,1 1,2l0 30c0,0 0,1 0,1 -1,1 -1,1 -2,1 -8,-1 -14,-7 -14,-15zm-3 7c0,4 -3,8 -8,8 -4,0 -7,-4 -7,-8l0 -35c0,-1 0,-2 1,-2l9 0c1,0 1,0 2,1 1,2 2,3 3,5 0,0 0,1 0,1l0 30zm-34 6l0 -28c0,-8 6,-14 13,-15 1,0 1,0 2,0 0,1 0,1 0,2l0 28c0,8 -6,14 -13,15 -1,0 -1,0 -2,-1 0,0 0,-1 0,-1zm51 -39c0,1 1,1 1,1 0,0 1,0 1,0 1,1 1,1 1,2 0,1 0,2 -1,2 0,0 -1,0 -1,0 -4,1 -9,2 -13,0 -1,0 -1,-1 -2,-1 0,0 -1,0 -1,-1 -1,-1 -2,-2 -3,-3 0,0 0,0 0,-1 0,0 -1,-1 -1,-1 0,0 0,0 0,0 0,-1 -1,-1 -1,-1 0,-1 -1,-2 -1,-2 -2,-3 -5,-7 -7,-9 -1,0 -1,-1 -1,-2 0,0 1,-1 1,-1 8,-3 18,-3 25,2 2,1 3,3 4,5 2,2 3,6 3,9 0,0 0,1 0,1 -1,1 -1,1 -1,1 -1,0 -2,0 -3,-1 0,0 0,0 0,0z"/>
    <g>
     <g>
      <path class="fil5" d="M206 96l-46 0c-5,0 -9,4 -9,9l0 14c0,0 30,0 46,0 6,0 11,5 11,11l14 0 0 -16 0 -2c0,-9 -7,-16 -16,-16z"/>
      <path class="fil5" d="M206 235c9,0 16,-7 16,-16l0 -1 0 -16 -14 0c0,6 -5,10 -11,10 -16,0 -46,0 -46,0l0 14c0,5 4,9 9,9l46 0z"/>
      <path class="fil5" d="M120 212l31 0 0 -35 14 0c2,0 9,0 13,3 2,2 4,4 5,7l5 0c5,0 9,-4 9,-9l0 -23c0,-5 -4,-9 -9,-9l-5 0c-1,3 -3,5 -5,7 -4,3 -11,3 -13,3l-14 0 0 -1 0 0 0 -36 -31 0c-6,0 -11,5 -11,11l0 72c0,5 5,10 11,10z"/>
     </g>
     <g>
      <path class="fil5" d="M253 181l0 -18c5,2 10,1 12,1l0 30c-6,-1 -12,-6 -12,-13z"/>
      <path class="fil5" d="M246 188c0,3 -2,6 -6,6 -3,0 -6,-3 -6,-6l0 -35 9 0c1,2 2,4 3,5l0 30z"/>
      <path class="fil5" d="M215 194l0 -28c0,-7 6,-13 12,-13l0 28c0,7 -5,12 -12,13z"/>
      <path class="fil5" d="M252 158c0,-1 0,-1 -1,-1 -1,-1 -2,-2 -2,-3 0,0 0,0 0,0 -1,-1 -1,-2 -2,-2 0,0 0,0 0,0 0,-1 0,-1 0,-1 -1,-1 -1,-2 -2,-2 -4,-7 -7,-9 -7,-9 0,0 14,-6 23,1 2,1 3,3 4,5 2,4 2,8 2,8 0,0 0,0 -1,0 -2,-1 -3,-1 -5,-3 -1,-1 -2,-1 -2,-2 -2,-2 -3,-3 -4,-4 -5,-3 -8,-3 -8,-3 0,0 2,1 6,4 1,1 2,2 4,4 0,0 0,0 0,1 0,0 1,0 1,1 0,0 1,0 1,1 3,2 5,4 6,5 1,0 1,0 1,0 0,0 0,0 -1,0 -2,1 -7,2 -12,0 0,0 0,0 -1,0z"/>
     </g>
    </g>
   </g>
   <g>
    <path class="fil6" d="M77 392l0 -7 -14 0 0 51 15 0 0 -24c0,-10 6,-14 14,-14 1,0 2,0 3,0l0 -14c-8,0 -14,3 -18,8z"/>
    <path class="fil6" d="M224 437c17,0 28,-11 28,-26 0,-16 -11,-27 -28,-27 -16,0 -28,11 -28,27 0,15 12,26 28,26zm0 -12c-7,0 -13,-5 -13,-14 0,-9 6,-14 13,-14 8,0 13,5 13,14 0,9 -5,14 -13,14z"/>
    <path class="fil6" d="M286 437c17,0 28,-11 28,-26 0,-16 -11,-27 -28,-27 -16,0 -28,11 -28,27 0,15 12,26 28,26zm0 -12c-7,0 -13,-5 -13,-14 0,-9 6,-14 13,-14 8,0 13,5 13,14 0,9 -5,14 -13,14z"/>
    <path class="fil6" d="M355 384c-7,0 -13,3 -17,7l0 -6 -14 0 0 51 15 0 0 -25c0,-9 5,-14 12,-14 7,0 11,4 11,12l0 27 14 0 0 -29c0,-16 -9,-23 -21,-23z"/>
    <g>
     <path class="fil6" d="M46 370l-22 0c-2,0 -4,2 -4,4l0 7c0,0 14,0 22,0 3,0 5,2 5,5l7 0 0 -8 0 -1c0,-4 -3,-7 -8,-7z"/>
     <path class="fil6" d="M46 436c5,0 8,-3 8,-7l0 -1 0 -8 -7 0c0,3 -2,5 -5,5 -8,0 -22,0 -22,0l0 7c0,2 2,4 4,4l22 0z"/>
     <path class="fil7" d="M5 425l15 0 0 -17 7 0c1,0 4,0 6,2 1,1 2,1 2,3l3 0c2,0 4,-2 4,-4l0 -11c0,-3 -2,-5 -4,-5l-3 0c0,2 -1,3 -2,4 -2,1 -5,1 -6,1l-7 0 0 0 0 0 0 -17 -15 0c-3,0 -5,2 -5,5l0 34c0,3 2,5 5,5z"/>
    </g>
    <g>
     <path class="fil7" d="M168 416l0 -27c7,3 15,2 18,1l0 46c-10,-1 -18,-9 -18,-20z"/>
     <path class="fil7" d="M157 427c0,5 -4,9 -9,9 -5,0 -10,-4 -10,-9l0 -54 14 0c1,3 3,6 5,8l0 46z"/>
     <path class="fil7" d="M109 436l0 -43c0,-11 9,-19 19,-20l0 43c0,11 -8,19 -19,20z"/>
     <path class="fil6" d="M166 380c-1,0 -1,0 -2,-1 -1,-1 -2,-2 -4,-4 0,-1 0,-1 0,-1 0,-1 -1,-2 -1,-3 -1,0 -1,0 -1,0 0,0 0,-1 -1,-1 0,-1 -1,-3 -2,-3 -6,-11 -11,-14 -11,-14 0,0 21,-8 35,2 3,2 5,4 6,7 4,6 4,13 4,13 0,0 -1,0 -2,-1 -2,0 -5,-1 -8,-4 -1,-1 -2,-2 -3,-3 -2,-2 -4,-4 -6,-6 -7,-5 -13,-4 -13,-4 0,0 5,0 10,5 2,2 4,4 6,6 0,1 0,1 1,2 0,0 0,1 1,1 0,1 1,1 1,2 4,4 8,6 10,7 1,1 2,1 2,1 0,0 -1,0 -2,1 -3,1 -12,3 -18,-1 -1,0 -2,0 -2,-1z"/>
    </g>
   </g>
  </g>
 </g>
</svg>
